<svg width="484.000000" height="151.000000" viewBox="0 0 484 151" fill="none" xmlns="http://www.w3.org/2000/svg" xmlns:xlink="http://www.w3.org/1999/xlink">
	<desc>
			Created with Pixso.
	</desc>
	<defs/>
	<path id="path1110" d="M370.83 52.05C380.07 63.08 378.01 91.59 367.63 99.48C361.86 83.18 363.89 67.7 370.83 52.05ZM329.21 117.21C320.71 99.24 324.46 47.97 331.41 34.86C345.09 53.05 344.06 96.56 329.21 117.21ZM91 43.85C102.53 43.83 110.64 52.11 110.64 63.9C110.65 75.52 102.16 84.23 90.96 84.09C79.74 83.96 71.78 75.69 71.71 64.11C71.63 52.1 79.47 43.88 91 43.85ZM285.57 19.65C308.46 50.4 303.59 109.33 282.55 131.5C283.56 94.25 284.55 57.53 285.57 19.65ZM154.11 12.22C181.98 52.61 174.27 111.66 151.15 136.35C157.16 94.32 155.67 53.29 154.11 12.22ZM234.34 138.45C241.86 96.2 242.31 54.36 242.21 11.25C265 43.07 262.83 110.87 234.34 138.45ZM194.11 139.64C198.04 96.56 205.18 53.54 197.04 10.17C225.72 42.1 221.82 102.74 194.11 139.64ZM450.21 78.13C463.46 69.99 473.49 59.42 480.19 45.97C489.01 28.21 482.26 16.81 462.49 15.07C451.91 14.13 442.04 16.5 433.19 21.89C425.06 26.83 417.57 32.86 409.85 38.48C407.79 39.98 405.95 41.76 403.96 43.37C395.97 49.81 387.63 50.7 378.14 46.24C360.86 38.13 343.64 29.69 325.77 23.04C288.01 8.98 248.63 2.25 208.42 0.41C147.45 -2.4 89.16 9.11 33.4 33.59C24.59 37.45 16.6 43.21 8.37 48.33C6.39 49.56 4.81 51.55 3.38 53.44C-1.42 59.7 -1.23 66.16 4.67 71.38C49.82 111.37 99.87 141.74 161.24 148.55C220.73 155.14 278.69 148.78 334.05 124.97C349.23 118.45 363.8 110.46 378.62 103.09C383.32 100.75 388.01 98.35 392.57 95.75C395.34 94.16 396.58 95 398.21 97.52C402.72 104.46 407.1 111.59 412.45 117.85C423.06 130.28 436.71 135.04 452.83 131.29C464.24 128.65 469.29 120.79 467.39 109.3C465.36 97.01 458.74 87.19 450.21 78.13Z" fill="#FAB751" fill-opacity="0.150000" fill-rule="evenodd"/>
</svg>
