<svg width="53.000000" height="35.000000" viewBox="0 0 53 35" fill="none" xmlns="http://www.w3.org/2000/svg" xmlns:xlink="http://www.w3.org/1999/xlink">
	<desc>
			Created with Pixso.
	</desc>
	<defs/>
	<path id="Vector 24" d="M28.15 18.61C31.43 18.61 34.11 22.05 34.11 22.92C34.11 23.78 31.43 26.64 28.15 26.64C24.88 26.64 22.5 22.92 22.5 22.92C22.5 22.92 24.88 18.61 28.15 18.61ZM18.26 20.19L18.23 20.19C17.83 19.8 17.81 19.18 18.2 18.78C18.59 18.38 19.21 18.36 19.62 18.75L19.62 18.78L18.26 20.19ZM19.62 27.05L19.62 27.08C19.21 27.47 18.59 27.46 18.2 27.05C17.81 26.65 17.83 26.03 18.23 25.64L18.26 25.64L19.62 27.05Z" fill="#FFFDFB" fill-opacity="1.000000" fill-rule="nonzero"/>
	<path id="Vector 24" d="M18.92 19.47L22.5 22.92C22.5 22.92 24.88 26.64 28.15 26.64C31.43 26.64 34.11 23.78 34.11 22.92C34.11 22.05 31.43 18.61 28.15 18.61C24.88 18.61 22.5 22.92 22.5 22.92M22.5 22.92L18.92 26.36" stroke="#FFFDFB" stroke-opacity="1.000000" stroke-width="2.000000" stroke-linejoin="round" stroke-linecap="round"/>
	<path id="Vector" d="M49.65 10.88L52.98 33.29C53.04 33.72 52.91 34.15 52.62 34.48C52.32 34.81 51.89 35 51.44 35L1.55 35C1.1 35 0.67 34.81 0.37 34.48C0.08 34.15 -0.05 33.72 0.01 33.29L3.34 10.88C3.45 10.15 4.1 9.6 4.87 9.6L8.95 9.6C9.66 6.51 12.48 5.59 12.8 5.49C14.33 2.54 17.47 2.4 17.81 2.39C19.67 0.45 22.18 0.45 23.52 0.78C25.87 -0.57 28.28 0.09 29.47 0.78C30.81 0.45 33.32 0.45 35.18 2.39C35.52 2.4 38.66 2.54 40.19 5.49C40.5 5.59 43.32 6.5 44.04 9.6L48.12 9.6C48.89 9.6 49.54 10.15 49.65 10.88ZM5.03 10.87L1.55 33.73L51.44 33.73L47.96 10.87L5.03 10.87Z" fill="#FFFDFB" fill-opacity="1.000000" fill-rule="evenodd"/>
	<path id="Vector" d="M8.95 9.6L4.87 9.6C4.1 9.6 3.45 10.15 3.34 10.88L0.01 33.29C-0.05 33.72 0.08 34.15 0.37 34.48C0.39 34.5 0.4 34.51 0.42 34.53C0.49 34.6 0.57 34.67 0.66 34.73C0.92 34.9 1.23 35 1.55 35L51.44 35C51.76 35 52.07 34.9 52.33 34.73C52.42 34.67 52.5 34.6 52.57 34.53C52.59 34.51 52.6 34.5 52.62 34.48C52.91 34.15 53.04 33.72 52.98 33.29L49.65 10.88C49.54 10.15 48.89 9.6 48.12 9.6L44.04 9.6C43.32 6.5 40.5 5.59 40.19 5.49C38.66 2.54 35.52 2.4 35.18 2.39C33.32 0.45 30.81 0.45 29.47 0.78C28.28 0.09 25.87 -0.57 23.52 0.78C22.18 0.45 19.67 0.45 17.81 2.39C17.47 2.4 14.33 2.54 12.8 5.49C12.48 5.59 9.66 6.51 8.95 9.6ZM13.96 5.5Q13.92 5.62 13.89 5.73L13.89 5.73Q13.85 5.87 13.76 5.96Q13.71 6.01 13.64 6.05L13.69 5.95Q13.83 5.66 14 5.41Q13.98 5.46 13.96 5.5ZM18.37 3.25Q18.4 3.26 18.44 3.26Q18.66 3.3 18.81 3.22Q18.93 3.15 19.02 3.02Q19.34 2.51 19.7 2.16Q19.08 2.51 18.53 3.08L18.37 3.25ZM23.74 1.8Q23.8 1.81 23.86 1.8Q24.02 1.77 24.15 1.65Q24.29 1.53 24.42 1.43Q24.22 1.53 24.02 1.64L23.74 1.8ZM28.57 1.43Q28.7 1.53 28.84 1.65Q28.97 1.77 29.13 1.8Q29.19 1.81 29.25 1.8L28.97 1.64Q28.77 1.53 28.57 1.43ZM41.96 7.68Q42.37 8.29 42.83 9.12L42.9 9.26Q42.62 8.44 42.09 7.82Q42.02 7.75 41.96 7.68ZM40.25 8.6Q39.97 8.1 39.94 8.09Q39.05 7.99 38.5 7.51Q37.99 7.06 37.77 6.27Q37.65 5.84 37.37 5.58Q36.78 5.02 35.47 5.24Q34.6 5.38 33.94 5.07Q33.31 4.78 32.87 4.08Q32.65 3.73 31.75 3.53Q30.81 3.32 30.33 3.55Q29.55 3.91 28.84 3.81Q28.14 3.71 27.51 3.15Q27 2.7 26.49 2.7Q25.99 2.7 25.48 3.15Q24.85 3.71 24.15 3.81Q23.44 3.91 22.66 3.55Q22.01 3.24 21.51 3.4Q21.05 3.54 20.71 4.08Q20.27 4.78 19.65 5.07Q18.99 5.38 18.12 5.24Q16.8 5.02 16.21 5.58Q15.93 5.84 15.81 6.27L15.81 6.27Q15.6 7.06 15.08 7.51Q14.53 7.99 13.65 8.09Q13.31 8.13 12.89 8.6L40.25 8.6ZM10.08 9.26L10.16 9.12Q10.71 8.11 11.29 7.43Q11.08 7.61 10.9 7.82Q10.37 8.44 10.08 9.26ZM1.7 32.73L5.03 10.87L47.96 10.87L51.29 32.73L51.44 33.73L1.55 33.73L1.7 32.73Z" fill="#FFFDFB" fill-opacity="1.000000" fill-rule="evenodd"/>
</svg>
