<svg width="64.000000" height="53.000000" viewBox="0 0 64 53" fill="none" xmlns="http://www.w3.org/2000/svg" xmlns:xlink="http://www.w3.org/1999/xlink">
	<desc>
			Created with Pixso.
	</desc>
	<defs/>
	<path id="КОТЕЙКА" d="M38.01 40.7C37.26 40.08 37.19 39.04 38.25 38.35C38.27 38.36 38.3 38.37 38.32 38.37C39.34 38.75 40.4 39.14 41.98 38.32C43.06 39.1 42.66 40.16 41.64 40.62C40.52 41.12 38.86 41.31 38.01 40.7ZM13.7 52C12.02 52.04 9.62 51.66 9.62 47.02C9.62 43.26 11.3 41.76 13.75 41.76C16.07 41.76 17.8 43.13 17.82 47.02C17.8 51.56 15.26 52 13.7 52ZM27.55 41.85C29.43 41.77 32.13 41.72 33.25 41.84C34.66 42.16 34.66 44.52 33.12 44.48C32.97 44.47 32.84 44.46 32.71 44.46C32.13 44.43 31.7 44.41 30.9 44.48L30.9 45.74C31.37 45.78 31.71 45.77 32.06 45.76C32.37 45.76 32.68 45.75 33.11 45.77C34.4 45.77 34.55 48.06 33.12 48.06C32.43 48.06 31.65 48.09 30.93 48.09C30.91 48.22 30.92 48.62 30.92 48.91C30.93 49.03 30.93 49.13 30.93 49.2C31.68 49.34 32.88 49.29 34.18 49.1C34.93 50.96 34.29 51.8 32.72 51.93C31.57 52.03 30.85 52.03 29.57 51.93C27.78 51.81 27.77 50.71 27.75 49.09C27.75 48.95 27.75 48.8 27.75 48.65C27.78 46.72 27.76 43.98 27.55 41.85ZM50.97 46.68C52.56 46.76 53.13 47.71 53.21 48.67C53.29 49.47 53.21 50.52 53.49 51.36C52.7 52.12 50.05 52.54 50.03 50.3C50 48.06 49.81 47.76 48.75 47.84C48.8 48.8 48.81 50.52 48.81 51.37C48.16 52.06 45.77 52.59 45.55 50.59C45.5 50.12 45.52 49.41 45.53 48.73C45.55 48.31 45.56 47.9 45.55 47.56C45.55 47.23 45.55 46.94 45.55 46.67C45.55 44.81 45.55 44.14 45.37 42.27C45.92 42.03 48.29 41.13 48.62 43.07C48.73 43.79 48.72 44.5 48.72 45.09C48.71 45.45 48.71 45.77 48.73 46.03C49.83 45.79 49.86 44.35 49.89 43.11C49.9 42.74 49.91 42.39 49.95 42.09C49.99 42.08 50.04 42.06 50.09 42.05C50.95 41.78 52.26 41.38 52.72 42.65C53.29 44.32 51.95 46.56 50.97 46.68ZM6 46.68C7.58 46.76 8.16 47.71 8.24 48.67C8.32 49.47 8.24 50.52 8.51 51.36C7.72 52.12 5.07 52.54 5.05 50.3C5.02 48.06 4.83 47.76 3.77 47.84C3.82 48.8 3.84 50.52 3.84 51.37C3.18 52.06 0.8 52.59 0.57 50.59C0.52 50.12 0.54 49.41 0.56 48.73C0.57 48.31 0.58 47.9 0.57 47.56C0.57 47.23 0.57 46.94 0.57 46.67C0.58 44.81 0.58 44.14 0.4 42.27C0.94 42.03 3.31 41.13 3.64 43.07C3.75 43.79 3.74 44.5 3.74 45.09C3.73 45.45 3.73 45.77 3.76 46.03C4.85 45.79 4.89 44.35 4.92 43.11C4.93 42.74 4.93 42.39 4.97 42.09C5.02 42.08 5.06 42.06 5.11 42.05C5.97 41.78 7.28 41.38 7.74 42.65C8.32 44.32 6.97 46.56 6 46.68ZM21.11 45.22C21.11 45.03 21.11 44.87 21.11 44.7L20.63 44.7C18.79 44.67 18.52 43.66 18.96 41.77C19.16 41.79 19.32 41.79 21.73 41.77L24.77 41.77C25.86 41.77 26.64 42.28 26.66 43.24C26.68 44.09 26.32 44.7 25.3 44.73C25 44.75 24.66 44.75 24.31 44.75C24.32 45.36 24.33 46.05 24.35 46.75C24.38 48.48 24.42 50.3 24.39 51.29C24.24 51.45 23.92 51.96 22.64 51.96C21.2 52 21.16 50.97 21.14 49.72C21.1 47.18 21.1 46.05 21.11 45.22ZM42.38 41.77C43.34 41.77 43.94 42.24 43.94 43.2C43.93 43.71 43.91 44.59 43.91 45.6C43.91 47.88 43.96 50.8 44.09 51.28C43.9 51.61 43.27 51.98 42.18 51.98C40.92 51.98 40.82 51.23 40.82 50.14C40.82 49.34 40.86 46.96 40.86 46.27C40.25 47.77 40.1 51.9 37.86 51.98C36.62 52.03 36.12 51.52 36.07 49.98C35.98 46.84 36.01 45.26 35.98 44.27C35.96 43.32 35.88 42.91 35.78 42.19C35.78 42.19 36.95 41.77 37.61 41.77C38.55 41.77 39.11 42.14 39.11 43.2C39.11 43.61 39.02 47 39.02 47.58C39.35 46.25 39.94 44.33 40.34 43.08C40.68 42.06 41.26 41.77 42.38 41.77ZM62.67 49.47C62.71 50.36 62.7 50.67 62.92 51.29C62.36 52.22 60.52 52.49 59.72 51.58C59.27 51.08 59.35 50.16 59.35 50.16C59.05 50.16 58.27 50.14 58.06 50.14C57.98 50.36 57.98 51.31 57.98 51.58C56.22 52.68 54.33 52.06 54.55 49.8C54.86 46.72 55.34 45.58 55.48 42.81C57.1 41.66 60.44 41.04 61.74 43.32C62.51 44.88 62.54 47.13 62.67 49.47ZM13.79 44.36C13.78 44.36 13.76 44.36 13.75 44.36C13.48 44.36 12.92 44.7 12.92 46.91C12.87 49.34 13.26 49.77 13.74 49.77C14.31 49.77 14.6 48.73 14.6 46.91C14.6 44.29 14.01 44.34 13.79 44.36ZM58.33 45.1C58.28 45.48 58.28 47.28 58.17 48.14L59.26 48.14C59.21 47.28 59.21 45.9 59.02 45.15C58.95 45.07 58.41 45.04 58.33 45.1Z" fill="#1A212F" fill-opacity="1.000000" fill-rule="evenodd"/>
	<path id="Vector" d="M39 6.99L45.57 0.41C46.47 -0.48 48 0.15 48 1.42L48 18.99C48 13.29 43.48 9.82 39 6.99Z" fill="#FF7236" fill-opacity="1.000000" fill-rule="nonzero"/>
	<path id="Vector" d="M48 18.99C48 27.83 40.83 34.99 32 34.99C23.16 34.99 16 27.83 16 18.99C16 10.15 23.16 3.99 32 3.99C40.83 3.99 48 10.15 48 18.99Z" fill="#FFAA50" fill-opacity="1.000000" fill-rule="nonzero"/>
	<path id="Vector" d="M25 18.99C25 11.29 29.42 5.62 35.31 4.29C34.24 4.1 33.13 3.99 32 3.99C29.05 3.99 26.3 4.69 23.93 5.93L18.42 0.41C17.52 -0.48 16 0.15 16 1.42L16 18.99C16 27.83 23.16 34.99 32 34.99C33.13 34.99 34.24 34.87 35.31 34.65C29.42 33.12 25 26.69 25 18.99Z" fill="#FF7236" fill-opacity="1.000000" fill-rule="nonzero"/>
	<path id="Vector" d="M31.99 25.99C31.99 27.65 30.43 28.99 28.5 28.99C26.56 28.99 25 27.65 25 25.99C25 24.34 26.56 22.99 28.5 22.99C30.43 22.99 31.99 24.34 31.99 25.99Z" fill="#FFFDFB" fill-opacity="1.000000" fill-rule="evenodd"/>
	<path id="Vector" d="M39 25.99C39 27.65 37.43 28.99 35.5 28.99C33.56 28.99 32 27.65 32 25.99C32 24.34 33.56 22.99 35.5 22.99C37.43 22.99 39 24.34 39 25.99Z" fill="#FFFDFB" fill-opacity="1.000000" fill-rule="evenodd"/>
	<path id="Vector" d="M34 23.99C34 25.1 33.1 25.99 32 25.99C30.89 25.99 30 25.1 30 23.99C30 22.89 30.89 21.99 32 21.99C33.1 21.99 34 22.89 34 23.99Z" fill="#FF913C" fill-opacity="1.000000" fill-rule="evenodd"/>
	<path id="Vector" d="M26 19.99C25.44 19.99 25 19.54 25 18.99L25 17.99C25 17.44 25.44 16.99 26 16.99C26.55 16.99 27 17.44 27 17.99L27 18.99C27 19.54 26.55 19.99 26 19.99Z" fill="#1A212F" fill-opacity="1.000000" fill-rule="nonzero"/>
	<path id="Vector" d="M38 19.99C37.44 19.99 37 19.54 37 18.99L37 17.99C37 17.44 37.44 16.99 38 16.99C38.55 16.99 39 17.44 39 17.99L39 18.99C39 19.54 38.55 19.99 38 19.99Z" fill="#1A212F" fill-opacity="1.000000" fill-rule="nonzero"/>
</svg>
