<svg width="122.000000" height="130.000000" viewBox="0 0 122 130" fill="none" xmlns="http://www.w3.org/2000/svg" xmlns:xlink="http://www.w3.org/1999/xlink">
	<desc>
			Created with Pixso.
	</desc>
	<defs/>
	<path id="paw" d="M84.31 65.95C78.93 62.18 76.49 55.84 77.26 49.28C79.54 29.78 105.8 18.95 117.16 33.16C131.54 51.13 103.3 79.25 84.31 65.95ZM50.85 42.52C31.85 29.21 48.67 -6.93 70.43 0.43C80.35 3.78 85.66 16.11 81.27 28.78C76.35 42.98 61.54 50.01 50.85 42.52ZM119.04 81.84C109.23 66.44 82.04 74.49 77.72 93.64C76.08 100.92 78.55 108.02 84.42 112.13C102.72 124.94 130.86 100.38 119.04 81.84ZM36.87 27.86C46.38 48 25.18 72.54 7.99 60.51C0.58 55.32 -1.95 45.27 0.17 36.18C5.05 15.17 28.72 10.56 36.87 27.86ZM28.77 110.49C23.82 107.13 18.81 104.31 15.66 103.19C4.39 99.19 -4.11 83.8 8 72.55C19.17 62.16 28.07 69.44 38.4 59.39C48.1 49.96 59.68 49.67 67.8 54.75C76.58 60.24 81.34 71.99 75.38 85.27C69.49 98.42 79.39 104.31 73.44 118.37C67.01 133.58 49.65 130.92 42.01 121.64C39.18 118.22 34.01 114.05 28.77 110.49Z" fill="#FAC663" fill-opacity="0.150000" fill-rule="evenodd"/>
</svg>
