<svg width="354.000000" height="345.000000" viewBox="0 0 354 345" fill="none" xmlns="http://www.w3.org/2000/svg" xmlns:xlink="http://www.w3.org/1999/xlink">
	<desc>
			Created with Pixso.
	</desc>
	<defs/>
	<path id="paw" d="M238.02 161.3C221.61 155 211.16 140.07 208.92 122.5C202.26 70.25 263.52 24.98 302.25 54.58C351.26 92 296.02 183.57 238.02 161.3ZM135.89 122.09C77.86 99.82 98.24 -5.22 159.58 -0.23C187.53 2.05 209.31 30.69 206.08 66.52C202.47 106.68 168.51 134.62 135.89 122.09ZM338.61 180.05C303.14 146.37 237.64 185 238.8 237.66C239.25 257.68 250.25 274.55 268.18 281.43C324.05 302.88 381.34 220.62 338.61 180.05ZM90.06 93.02C127.79 139.27 88.53 216.93 36.07 196.79C13.44 188.11 0.38 163.61 -0.01 138.56C-0.9 80.69 57.66 53.3 90.06 93.02ZM122.42 313.38C107.37 307.84 92.51 303.78 83.6 302.91C51.7 299.82 19.66 265.29 43.87 228.13C66.21 193.81 94.05 206.97 114.42 174.09C133.55 143.24 163.45 134.96 187.86 142.89C214.24 151.47 234.21 178.97 227.3 217.41C220.49 255.47 250.04 264.36 243.68 304.83C236.79 348.61 189.91 352.96 164.05 333.79C154.47 326.72 138.33 319.22 122.42 313.38Z" fill="#FAC663" fill-opacity="0.150000" fill-rule="evenodd"/>
</svg>
