<svg width="282.000000" height="290.000000" viewBox="0 0 282 290" fill="none" xmlns="http://www.w3.org/2000/svg" xmlns:xlink="http://www.w3.org/1999/xlink">
	<desc>
			Created with Pixso.
	</desc>
	<defs/>
	<path id="paw" d="M159.4 96.03C147.62 105.24 132.17 106.31 118.38 100.25C77.39 82.22 71.21 17.75 109.75 2.48C158.47 -16.84 201.02 63.52 159.4 96.03ZM86.11 153.29C44.47 185.83 -23.16 124.97 7.34 82.45C21.23 63.08 51.64 59.75 76.34 77.8C104.03 98.02 109.52 135 86.11 153.29ZM217.11 30.94C177.03 42.04 176.51 106.69 215.4 128.91C230.18 137.36 247.29 136.72 260.16 126.67C300.25 95.35 265.38 17.57 217.11 30.94ZM44.85 173.96C95.09 166.72 134.5 229.34 96.85 258.75C80.61 271.44 57.04 270.23 38.61 259.54C-3.95 234.85 1.72 180.17 44.85 173.96ZM219.63 246.89C209 255.43 199.54 264.48 195.01 270.59C178.78 292.49 139.59 300.72 123.11 266.79C107.88 235.48 129.66 220.95 114.61 191.71C100.5 164.26 107.56 138.84 124.03 124.52C141.82 109.06 170.61 106.55 195.6 128.42C220.36 150.05 239.78 132.42 266.49 154.78C295.37 178.97 278.03 215.04 252.73 225.49C243.38 229.38 230.86 237.85 219.63 246.89Z" fill="#FAC663" fill-opacity="0.150000" fill-rule="evenodd"/>
</svg>
