<svg width="122.000000" height="127.000000" viewBox="0 0 122 127" fill="none" xmlns="http://www.w3.org/2000/svg" xmlns:xlink="http://www.w3.org/1999/xlink">
	<desc>
			Created with Pixso.
	</desc>
	<defs/>
	<path id="paw" d="M51.45 83.92C56.83 80.16 63.62 80.04 69.52 83C87.07 91.82 88.26 120.19 71.02 126.01C49.22 133.37 32.45 97.22 51.45 83.92ZM84.9 60.5C103.91 47.19 132.12 75.36 117.77 93.3C111.22 101.47 97.82 102.24 87.42 93.78C75.76 84.3 74.22 67.98 84.9 60.5ZM24.64 111.13C42.46 107.17 44.2 78.87 27.68 68.26C21.4 64.23 13.89 64.13 8.02 68.24C-10.28 81.05 3.18 115.9 24.64 111.13ZM103.47 52.38C81.29 54.42 65.48 26.11 82.66 14.07C90.08 8.88 100.38 9.94 108.2 15.04C126.28 26.81 122.51 50.63 103.47 52.38ZM28.59 16.5C33.45 13 37.8 9.25 39.93 6.68C47.55 -2.54 64.92 -5.27 71.35 9.96C77.29 24.02 67.41 29.89 73.31 43.03C78.86 55.37 75.17 66.35 67.62 72.24C59.46 78.62 46.79 79.07 36.34 68.92C26.01 58.89 17.08 66.18 5.9 55.79C-6.19 44.54 2.26 29.14 13.58 25.13C17.77 23.64 23.46 20.21 28.59 16.5Z" fill="#FAC663" fill-opacity="0.150000" fill-rule="evenodd"/>
</svg>
